<svg width="855" height="564" viewBox="0 0 855 564" fill="none" xmlns="http://www.w3.org/2000/svg">
    <path d="M855 3.16848C790.558 79.7225 732.643 150.686 672.008 219.125C648.986 245.094 651.071 262.226 673.367 286.932C714.697 332.648 752.673 381.34 791.465 429.22C808.595 450.41 822.19 473.944 827.447 501.085C831.435 521.644 827.719 540.94 808.776 552.572C789.833 564.204 771.072 558.613 753.851 546.621C738.534 535.981 729.742 520.111 719.954 504.872C685.784 451.762 650.89 399.193 617.627 345.542C602.037 320.385 591.161 319.754 572.309 343.739C521.1 409.022 463.819 468.714 392.308 512.987C322.972 555.998 248.651 575.204 167.533 557.351C61.7616 534.358 1.67057 459.968 0.0391389 352.215C-2.49864 178.819 118.68 29.3177 275.026 13.3576C352.7 5.42272 421.583 28.7767 481.13 77.1977C511.312 101.724 538.321 130.578 565.058 158.982C607.929 204.607 607.566 205.239 644.455 152.129C663.307 124.988 684.334 98.7483 699.017 69.4431C730.286 6.86543 781.404 -7.38136 855 3.16848ZM108.439 301.72C103.726 415.965 197.442 480.977 306.658 443.376C400.102 411.186 472.611 347.436 541.403 279.268C554.001 266.734 551.735 257.357 541.221 245.003C495.179 190.902 447.051 139.415 382.519 106.593C325.872 77.8289 269.225 75.3943 216.023 114.077C150.131 162.047 115.871 228.322 108.439 301.72Z" fill="#FAFBFD"/>
</svg>
